<svg width="1176" height="1176" viewBox="0 0 1176 1176" fill="none" xmlns="http://www.w3.org/2000/svg">
<g clip-path="url(#clip0_17_35)">
<path d="M783.31 747.069L783.312 748.072H784.316H861.335V766.238H779.485C771.993 766.238 765.81 759.924 765.782 752.096L765.551 581.973C765.551 580.942 765.061 579.97 764.228 579.366L764.221 579.361L706.522 538.293L706.26 538.108H706.25L667.334 510.403L665.744 509.271V511.222V766.238H648.184V410.244V408.595L646.718 409.352L470.684 500.136L470.139 500.418V501.03V570.481V570.974L470.528 571.275L540.61 625.483C545.47 629.274 548.378 635.266 548.378 641.55V765.077L538.324 766.238H453.707L452.594 755.84V595.704V593.656L450.972 594.91L392.689 640.025L392.295 640.331L392.299 640.828L393.327 759.582L387.759 765.892L383.235 766.238H314.994V748.072H374.61H375.628L375.616 747.057L374.416 641.73V641.727C374.328 635.353 377.25 629.259 382.194 625.456L382.196 625.454L452.204 571.275L452.594 570.974V570.481V498.903C452.594 492.899 455.812 487.519 460.975 484.841L549.844 439.013L550.389 438.732V438.12V166.744L561.324 161.189L566.409 165.257L717.171 302.47C721.773 306.657 724.412 312.686 724.412 319.029V528.477V528.994L724.835 529.296L774.162 564.409L774.746 563.591L774.164 564.409C779.738 568.375 783.081 574.926 783.111 581.93L783.31 747.069ZM530.833 641.55V641.059L530.446 640.757L471.762 595.008L470.139 593.742V595.801V747.067V748.072H471.144H529.827H530.833V747.067V641.55ZM665.744 486.695V487.213L666.166 487.513L705.278 515.358L706.867 516.489V514.54V319.029C706.867 317.928 706.413 316.881 705.606 316.134L705.6 316.128L569.616 192.371L567.934 190.84V193.114V428.024V429.673L569.4 428.916L648.363 388.198L648.372 388.194C652.063 386.239 656.43 386.424 660.005 388.723L660.011 388.726C663.59 390.997 665.744 394.944 665.744 399.306V486.695Z" fill="#AD001D"/>
<path d="M717.171 302.47L566.409 165.257L561.324 161.189L550.389 166.744V438.12V438.732L549.844 439.013L460.975 484.841C455.812 487.519 452.594 492.899 452.594 498.903V570.481V570.974L452.204 571.275L382.196 625.454L382.194 625.456C377.25 629.259 374.328 635.353 374.416 641.727V641.73L375.616 747.057L375.628 748.072H374.61H314.994V766.238H383.235L387.759 765.892L393.327 759.582L392.299 640.828L392.295 640.331L392.689 640.025L450.972 594.91L452.594 593.656V595.704V755.84L453.707 766.238H538.324L548.378 765.077V641.55C548.378 635.266 545.47 629.274 540.61 625.483L470.528 571.275L470.139 570.974V570.481V501.03V500.418L470.684 500.136L646.718 409.352L648.184 408.595V410.244V766.238H665.744V511.222V509.271L667.334 510.403L706.25 538.108H706.26L706.522 538.293L764.221 579.361L764.228 579.366C765.061 579.97 765.551 580.942 765.551 581.973L765.782 752.096C765.81 759.924 771.993 766.238 779.485 766.238H861.335V748.072H784.316H783.312L783.31 747.069L783.111 581.93C783.081 574.926 779.738 568.375 774.164 564.409L774.746 563.591L774.162 564.409L724.835 529.296L724.412 528.994V528.477V319.029C724.412 312.686 721.773 306.657 717.171 302.47ZM717.171 302.47L717.848 301.727M530.833 641.55V641.059L530.446 640.757L471.762 595.008L470.139 593.742V595.801V747.067V748.072H471.144H529.827H530.833V747.067V641.55ZM665.744 486.695V487.213L666.166 487.513L705.278 515.358L706.867 516.489V514.54V319.029C706.867 317.928 706.413 316.881 705.606 316.134L705.6 316.128L569.616 192.371L567.934 190.84V193.114V428.024V429.673L569.4 428.916L648.363 388.198L648.372 388.194C652.063 386.239 656.43 386.424 660.005 388.723L660.011 388.726C663.59 390.997 665.744 394.944 665.744 399.306V486.695Z" stroke="#AD001D" stroke-width="1.33333"/>
<path d="M311.975 839.346H864.403" stroke="#AD001D" stroke-width="10"/>
<path d="M421.894 924.987H754.484" stroke="#AD001D" stroke-width="10"/>
<path d="M514.703 1012.09H661.673" stroke="#AD001D" stroke-width="10"/>
</g>
<defs>
<clipPath id="clip0_17_35">
<rect width="553.562" height="856.205" fill="white" transform="translate(311 160)"/>
</clipPath>
</defs>
</svg>
