<svg width="491" height="459" viewBox="0 0 491 459" fill="none" xmlns="http://www.w3.org/2000/svg">
<path d="M137.738 119.76H57.6157C10.7444 123.217 0.361909 174.499 1.02959 199.707V277.494C2.23142 338.426 45.2636 351.859 66.6295 350.959H258.922H310V301.802C245.902 300.902 111.197 299.641 85.1577 301.802C59.118 303.963 53.2758 282.895 53.6096 272.092V201.328C53.6096 175.399 68.2987 168.557 75.6432 168.377C98.0106 167.836 146.551 167.404 161.774 169.997C176.997 172.59 178.466 190.884 177.298 199.707V277.494H231.38V2L177.5 50.5C177.5 91 177.298 151.631 177.298 151.631C171.289 127.431 148.421 120.3 137.738 119.76Z" fill="#FE0002" stroke="#FE0002"/>
<path d="M257 281.069V2L310 54.5C309.833 94.8821 310.473 152.892 310.473 152.892C321.668 125.202 342.79 119 351.953 119.361H417.42C478.989 118.928 491.383 173.985 489.884 201.567L489.884 353H435.911V201.567C435.911 175.174 418.919 168.937 410.423 169.117C391.433 168.576 349.154 167.819 331.963 169.117C314.771 170.415 310.473 185.162 310.473 192.373V281.069H257Z" fill="#5E5970" stroke="#5E5970"/>
<rect x="236" y="41" width="16" height="28" fill="#5E5970"/>
<rect x="236" y="84" width="16" height="28" fill="#5E5970"/>
<rect x="236" y="127" width="16" height="28" fill="#5E5970"/>
<rect x="236" y="170" width="16" height="28" fill="#5E5970"/>
<rect x="236" y="213" width="16" height="28" fill="#5E5970"/>
<path d="M43.3779 418.991C43.3779 422.966 42.8301 426.457 41.7344 429.465C40.6602 432.451 39.0918 434.954 37.0293 436.974C34.9883 438.972 32.4746 440.476 29.4883 441.485C26.5234 442.495 23.1396 443 19.3369 443H6.92969V395.885H20.7227C24.1816 395.885 27.2969 396.379 30.0684 397.367C32.8613 398.355 35.2461 399.827 37.2227 401.782C39.1992 403.716 40.7139 406.122 41.7666 409.001C42.8408 411.88 43.3779 415.21 43.3779 418.991ZM33.2588 419.249C33.2588 416.628 32.9902 414.372 32.4531 412.481C31.9375 410.569 31.1748 408.99 30.165 407.744C29.1768 406.498 27.9521 405.574 26.4912 404.973C25.0518 404.371 23.3975 404.07 21.5283 404.07H16.9199V434.75H20.5938C24.8047 434.75 27.9629 433.461 30.0684 430.883C32.1953 428.305 33.2588 424.427 33.2588 419.249ZM77.0972 406.294C77.355 406.294 77.6343 406.305 77.9351 406.326C78.2574 406.326 78.5582 406.348 78.8375 406.391C79.1382 406.412 79.4068 406.444 79.6431 406.487C79.9009 406.509 80.0943 406.541 80.2232 406.584V415.801C80.0513 415.758 79.815 415.715 79.5142 415.672C79.2134 415.629 78.8912 415.597 78.5474 415.575C78.2252 415.532 77.9029 415.511 77.5806 415.511C77.2584 415.489 76.9898 415.479 76.775 415.479C75.5074 415.479 74.3365 415.64 73.2623 415.962C72.2095 416.284 71.2964 416.811 70.523 417.541C69.7711 418.25 69.1802 419.195 68.7505 420.377C68.3423 421.537 68.1382 422.966 68.1382 424.663V443H58.3091V406.971H65.7535L67.2037 412.385H67.6871C68.2027 411.461 68.7613 410.623 69.3629 409.871C69.9644 409.119 70.6304 408.485 71.3609 407.97C72.1129 407.433 72.9507 407.024 73.8746 406.745C74.8199 406.444 75.8941 406.294 77.0972 406.294ZM107.497 413.287C105.757 413.287 104.307 413.899 103.147 415.124C102.008 416.349 101.353 418.271 101.181 420.893H113.717C113.695 419.797 113.556 418.787 113.298 417.863C113.04 416.939 112.653 416.145 112.138 415.479C111.622 414.791 110.978 414.254 110.204 413.867C109.431 413.48 108.528 413.287 107.497 413.287ZM108.754 443.645C106.176 443.645 103.802 443.269 101.632 442.517C99.462 441.765 97.5929 440.637 96.0245 439.133C94.4562 437.607 93.2316 435.695 92.3507 433.396C91.4913 431.076 91.0616 428.358 91.0616 425.243C91.0616 422.085 91.4591 419.324 92.254 416.961C93.0489 414.598 94.1554 412.632 95.5734 411.063C97.0128 409.474 98.7316 408.281 100.73 407.486C102.749 406.691 104.984 406.294 107.433 406.294C109.817 406.294 111.966 406.659 113.878 407.39C115.812 408.099 117.444 409.151 118.776 410.548C120.13 411.944 121.161 413.663 121.87 415.704C122.601 417.724 122.966 420.044 122.966 422.665V427.435H100.987C101.03 428.81 101.245 430.056 101.632 431.173C102.04 432.269 102.599 433.203 103.308 433.977C104.038 434.729 104.908 435.309 105.918 435.717C106.949 436.125 108.12 436.329 109.431 436.329C110.526 436.329 111.558 436.275 112.525 436.168C113.513 436.039 114.469 435.856 115.393 435.62C116.317 435.384 117.23 435.094 118.132 434.75C119.034 434.385 119.958 433.966 120.903 433.493V441.099C120.044 441.55 119.174 441.937 118.293 442.259C117.434 442.56 116.521 442.817 115.554 443.032C114.587 443.247 113.545 443.397 112.428 443.483C111.311 443.591 110.086 443.645 108.754 443.645ZM158.135 443L156.234 438.102H155.944C155.235 439.068 154.526 439.906 153.817 440.615C153.108 441.303 152.335 441.872 151.497 442.323C150.659 442.774 149.714 443.107 148.661 443.322C147.63 443.537 146.426 443.645 145.051 443.645C143.591 443.645 142.237 443.419 140.991 442.968C139.745 442.495 138.66 441.797 137.736 440.873C136.834 439.928 136.125 438.746 135.609 437.328C135.093 435.889 134.836 434.191 134.836 432.236C134.836 428.412 136.06 425.598 138.509 423.793C140.959 421.967 144.622 420.957 149.499 420.764L155.235 420.57V417.863C155.235 416.381 154.805 415.285 153.946 414.576C153.087 413.867 151.883 413.513 150.337 413.513C148.79 413.513 147.275 413.738 145.793 414.189C144.332 414.641 142.86 415.242 141.378 415.994L138.187 409.484C139.992 408.475 141.99 407.68 144.181 407.1C146.373 406.52 148.672 406.229 151.078 406.229C155.568 406.229 159.006 407.282 161.39 409.388C163.797 411.493 165 414.694 165 418.991V443H158.135ZM155.235 426.307L151.98 426.436C150.67 426.479 149.563 426.65 148.661 426.951C147.758 427.252 147.028 427.66 146.469 428.176C145.932 428.67 145.535 429.271 145.277 429.98C145.041 430.668 144.923 431.441 144.923 432.301C144.923 433.805 145.288 434.879 146.018 435.523C146.749 436.146 147.705 436.458 148.886 436.458C149.789 436.458 150.627 436.308 151.4 436.007C152.174 435.685 152.84 435.223 153.398 434.621C153.978 433.998 154.429 433.246 154.752 432.365C155.074 431.463 155.235 430.432 155.235 429.271V426.307ZM211.996 443H202.167V421.956C202.167 419.356 201.781 417.412 201.007 416.123C200.234 414.812 199.02 414.157 197.365 414.157C196.119 414.157 195.077 414.415 194.239 414.931C193.423 415.446 192.768 416.209 192.274 417.219C191.78 418.229 191.425 419.475 191.21 420.957C190.995 422.439 190.888 424.137 190.888 426.049V443H181.059V406.971H188.568L189.889 411.579H190.437C190.952 410.655 191.565 409.86 192.274 409.194C193.004 408.528 193.799 407.98 194.658 407.551C195.518 407.121 196.431 406.81 197.398 406.616C198.364 406.401 199.342 406.294 200.33 406.294C202.801 406.294 204.896 406.724 206.614 407.583C208.355 408.421 209.687 409.753 210.611 411.579H211.416C211.932 410.655 212.555 409.86 213.285 409.194C214.016 408.528 214.822 407.98 215.702 407.551C216.583 407.121 217.507 406.81 218.474 406.616C219.462 406.401 220.45 406.294 221.439 406.294C225.306 406.294 228.217 407.347 230.172 409.452C232.149 411.536 233.137 414.888 233.137 419.507V443H223.276V421.956C223.276 419.356 222.889 417.412 222.115 416.123C221.342 414.812 220.128 414.157 218.474 414.157C216.132 414.157 214.467 415.092 213.479 416.961C212.49 418.809 211.996 421.462 211.996 424.921V443Z" fill="#FE0002"/>
<path d="M309.019 443H299.061V422.665H283.044V443H273.054V395.885H283.044V414.351H299.061V395.885H309.019V443ZM334.295 424.921C334.295 428.509 334.8 431.216 335.809 433.042C336.819 434.847 338.463 435.749 340.74 435.749C342.996 435.749 344.629 434.836 345.639 433.01C346.648 431.184 347.153 428.487 347.153 424.921C347.153 421.333 346.648 418.658 345.639 416.896C344.629 415.113 342.975 414.222 340.676 414.222C338.42 414.222 336.787 415.113 335.777 416.896C334.789 418.658 334.295 421.333 334.295 424.921ZM357.176 424.921C357.176 427.929 356.789 430.593 356.016 432.913C355.264 435.233 354.168 437.188 352.728 438.778C351.31 440.368 349.57 441.582 347.508 442.42C345.467 443.236 343.168 443.645 340.611 443.645C338.226 443.645 336.035 443.236 334.037 442.42C332.039 441.582 330.309 440.368 328.849 438.778C327.409 437.188 326.281 435.233 325.465 432.913C324.648 430.593 324.24 427.929 324.24 424.921C324.24 421.935 324.616 419.281 325.368 416.961C326.142 414.641 327.237 412.696 328.655 411.128C330.095 409.538 331.835 408.335 333.876 407.519C335.917 406.702 338.226 406.294 340.805 406.294C343.189 406.294 345.381 406.702 347.379 407.519C349.377 408.335 351.096 409.538 352.535 411.128C353.996 412.696 355.135 414.641 355.951 416.961C356.767 419.281 357.176 421.935 357.176 424.921ZM395.181 443L393.86 438.392H393.344C392.807 439.315 392.163 440.11 391.411 440.776C390.68 441.421 389.874 441.958 388.994 442.388C388.113 442.817 387.178 443.129 386.19 443.322C385.202 443.537 384.192 443.645 383.161 443.645C381.399 443.645 379.798 443.397 378.359 442.903C376.919 442.388 375.684 441.593 374.653 440.519C373.622 439.444 372.827 438.08 372.268 436.426C371.709 434.771 371.43 432.784 371.43 430.464V406.971H381.259V428.015C381.259 430.614 381.646 432.569 382.419 433.88C383.214 435.169 384.471 435.813 386.19 435.813C387.479 435.813 388.553 435.556 389.413 435.04C390.272 434.524 390.949 433.762 391.443 432.752C391.958 431.742 392.324 430.496 392.539 429.014C392.753 427.531 392.861 425.834 392.861 423.922V406.971H402.69V443H395.181ZM442.951 432.301C442.951 434.191 442.607 435.846 441.92 437.264C441.232 438.682 440.255 439.863 438.987 440.809C437.72 441.754 436.184 442.463 434.379 442.936C432.574 443.408 430.555 443.645 428.32 443.645C427.139 443.645 426.043 443.602 425.033 443.516C424.023 443.451 423.067 443.333 422.165 443.161C421.263 442.989 420.393 442.774 419.555 442.517C418.717 442.259 417.868 441.937 417.009 441.55V433.429C417.911 433.88 418.856 434.288 419.845 434.653C420.855 435.019 421.854 435.341 422.842 435.62C423.83 435.878 424.786 436.082 425.71 436.232C426.655 436.383 427.525 436.458 428.32 436.458C429.201 436.458 429.953 436.383 430.576 436.232C431.199 436.061 431.704 435.835 432.091 435.556C432.499 435.255 432.789 434.911 432.961 434.524C433.154 434.116 433.251 433.687 433.251 433.235C433.251 432.784 433.176 432.387 433.025 432.043C432.897 431.678 432.585 431.302 432.091 430.915C431.597 430.507 430.866 430.056 429.899 429.562C428.954 429.046 427.676 428.423 426.064 427.692C424.496 426.983 423.132 426.285 421.972 425.598C420.833 424.889 419.888 424.104 419.136 423.245C418.405 422.386 417.857 421.408 417.492 420.312C417.127 419.195 416.944 417.874 416.944 416.349C416.944 414.673 417.267 413.212 417.911 411.966C418.556 410.698 419.469 409.646 420.65 408.808C421.832 407.97 423.25 407.347 424.904 406.938C426.58 406.509 428.439 406.294 430.48 406.294C432.628 406.294 434.669 406.541 436.603 407.035C438.536 407.529 440.523 408.271 442.564 409.259L439.6 416.22C437.967 415.446 436.409 414.812 434.927 414.318C433.444 413.824 431.962 413.577 430.48 413.577C429.147 413.577 428.181 413.813 427.579 414.286C426.999 414.759 426.709 415.403 426.709 416.22C426.709 416.649 426.784 417.036 426.935 417.38C427.085 417.702 427.386 418.046 427.837 418.411C428.288 418.755 428.922 419.142 429.738 419.571C430.555 419.979 431.618 420.484 432.929 421.086C434.454 421.752 435.829 422.418 437.054 423.084C438.278 423.729 439.331 424.47 440.212 425.308C441.093 426.146 441.77 427.123 442.242 428.24C442.715 429.357 442.951 430.711 442.951 432.301ZM471.224 413.287C469.484 413.287 468.034 413.899 466.874 415.124C465.735 416.349 465.08 418.271 464.908 420.893H477.444C477.422 419.797 477.283 418.787 477.025 417.863C476.767 416.939 476.38 416.145 475.865 415.479C475.349 414.791 474.705 414.254 473.931 413.867C473.158 413.48 472.255 413.287 471.224 413.287ZM472.481 443.645C469.903 443.645 467.529 443.269 465.359 442.517C463.189 441.765 461.32 440.637 459.752 439.133C458.183 437.607 456.959 435.695 456.078 433.396C455.218 431.076 454.789 428.358 454.789 425.243C454.789 422.085 455.186 419.324 455.981 416.961C456.776 414.598 457.882 412.632 459.3 411.063C460.74 409.474 462.459 408.281 464.457 407.486C466.476 406.691 468.711 406.294 471.16 406.294C473.545 406.294 475.693 406.659 477.605 407.39C479.539 408.099 481.171 409.151 482.504 410.548C483.857 411.944 484.888 413.663 485.597 415.704C486.328 417.724 486.693 420.044 486.693 422.665V427.435H464.714C464.757 428.81 464.972 430.056 465.359 431.173C465.767 432.269 466.326 433.203 467.035 433.977C467.765 434.729 468.635 435.309 469.645 435.717C470.676 436.125 471.847 436.329 473.158 436.329C474.254 436.329 475.285 436.275 476.252 436.168C477.24 436.039 478.196 435.856 479.12 435.62C480.044 435.384 480.957 435.094 481.859 434.75C482.761 434.385 483.685 433.966 484.63 433.493V441.099C483.771 441.55 482.901 441.937 482.02 442.259C481.161 442.56 480.248 442.817 479.281 443.032C478.314 443.247 477.272 443.397 476.155 443.483C475.038 443.591 473.813 443.645 472.481 443.645Z" fill="#5E5970"/>
</svg>
