<svg width="491" height="353" viewBox="0 0 491 353" fill="none" xmlns="http://www.w3.org/2000/svg">
<path d="M137.738 118.76H57.6157C10.7444 122.217 0.361909 173.499 1.02959 198.707V276.494C2.23142 337.426 45.2636 350.859 66.6295 349.959H258.922L310 319.168V300.802C245.902 299.902 111.197 298.641 85.1577 300.802C59.118 302.963 53.2758 281.895 53.6096 271.092V200.328C53.6096 174.399 68.2987 167.557 75.6432 167.377C98.0106 166.836 146.551 166.404 161.774 168.997C176.997 171.59 178.466 189.884 177.298 198.707V245.163L231.38 276.494V1L177.298 31.2503C178.299 72.1242 179.702 153.224 177.298 150.631C171.289 126.431 148.421 119.3 137.738 118.76Z" fill="#FE0002" stroke="#FE0002"/>
<path d="M257 280.069V1L309.474 33.4499C309.307 73.832 309.274 154.055 310.473 151.892C321.668 124.202 342.79 118 351.953 118.361H417.42C478.989 117.928 491.383 172.985 489.884 200.567V320.632L435.911 352V200.567C435.911 174.174 418.919 167.937 410.423 168.117C391.433 167.576 349.154 166.819 331.963 168.117C314.771 169.415 310.473 184.162 310.473 191.373V280.069H257Z" fill="#5E5970" stroke="#5E5970"/>
<rect x="236" y="40" width="16" height="28" fill="#5E5970"/>
<rect x="236" y="83" width="16" height="28" fill="#5E5970"/>
<rect x="236" y="126" width="16" height="28" fill="#5E5970"/>
<rect x="236" y="169" width="16" height="28" fill="#5E5970"/>
<rect x="236" y="212" width="16" height="28" fill="#5E5970"/>
</svg>
